<svg xmlns="http://www.w3.org/2000/svg" width="29.611" height="35.534" viewBox="0 0 29.611 35.534"><path d="M28.692,25.041a9.917,9.917,0,0,1-3.522-7.588V13.326A10.372,10.372,0,0,0,16.286,3.08v-1.6a1.481,1.481,0,0,0-2.961,0v1.6A10.371,10.371,0,0,0,4.442,13.326v4.128a9.927,9.927,0,0,1-3.536,7.6,2.591,2.591,0,0,0,1.685,4.559H27.02a2.591,2.591,0,0,0,1.672-4.57Zm0,0" transform="translate(0 0)"/><path d="M140.392,452.442a5.561,5.561,0,0,0,5.44-4.442H134.953A5.561,5.561,0,0,0,140.392,452.442Zm0,0" transform="translate(-125.587 -416.908)"/></svg>