<svg xmlns="http://www.w3.org/2000/svg" xmlns:xlink="http://www.w3.org/1999/xlink" width="434" height="83.372" viewBox="0 0 434 83.372"><defs><style>.a{fill:#00d86a;}.b{clip-path:url(#a);}</style><clipPath id="a"><rect class="a" width="434" height="83.372"/></clipPath></defs><g class="b"><path class="a" d="M95.225,7.012A148.569,148.569,0,0,0,7.7,6.184C2.254,7.8-1.012,13.78.283,19.732A97.1,97.1,0,0,0,8.468,42.9,92.538,92.538,0,0,0,46.436,82.15a9.74,9.74,0,0,0,9.67-.129A97.512,97.512,0,0,0,86.654,54.006a106.451,106.451,0,0,0,15.6-32.872c1.684-6.006-1.463-12.357-7.03-14.123M68.4,53.965H54.857l2.4-14.841H44.171l-2.4,14.841H28.226L34.8,13.646H48.343L46.528,24.679l-.586,3.561H72.6Zm4.774-29.286H59.614L61.43,13.646H74.974Z" transform="translate(0 0)"/><path class="a" d="M206.624,42.873h-13l.582-3.536,1.8-10.957h-13.45L176.034,68.42h13.45l2.384-14.739h13L202.481,68.42h13.45L220.1,42.873Z" transform="translate(-51.841 -6.714)"/><path class="a" d="M235.471,28.38H222.02l-1.8,10.957h13.467Z" transform="translate(-64.853 -6.715)"/><path class="a" d="M267.913,62.324H254.1L251.13,68.5H237.2l18.21-40.272H277.1l5.08,40.272H268.826Zm-9.076-10.748h7.821L264.83,38.852Z" transform="translate(-69.855 -6.679)"/><path class="a" d="M322.025,42.311A9.485,9.485,0,0,0,319,48.3l-.058.185a9.906,9.906,0,0,0-.171,1.791q0,5.559,6.907,6.115h12.559l-2,12.107H323.623a33.2,33.2,0,0,1-8.933-1.081,14.267,14.267,0,0,1-6.28-3.459,12.327,12.327,0,0,1-3.31-6.177,24.736,24.736,0,0,1-.028-9.3V48.3a27.79,27.79,0,0,1,3-9.327,19.085,19.085,0,0,1,5.394-6.207,21.626,21.626,0,0,1,7.478-3.46,37.284,37.284,0,0,1,9.247-1.081H342.8l-1.941,12.045H329.274q-4.853,0-7.249,2.038" transform="translate(-89.718 -6.679)"/><path class="a" d="M402,28.228l-18.038,20.2L395.377,68.5H379.851l-8.562-15.441L368.777,68.5H355.248l6.565-40.272h13.529l-2.4,14.577,12.9-14.577Z" transform="translate(-104.619 -6.679)"/><path class="a" d="M451.913,53.676H432.5l-.4,2.718h20.949l-2,12.106H416.579l6.565-40.272h34.478l-2,12.106h-20.95l-.4,2.718h19.408Z" transform="translate(-122.68 -6.679)"/><path class="a" d="M484.8,68.5H471.273l6.565-40.272h28.941a6.057,6.057,0,0,1,3.082.864,10.145,10.145,0,0,1,2.654,2.255,11.133,11.133,0,0,1,1.855,3.15,9.884,9.884,0,0,1,.684,3.613c0,.247-.01.495-.028.742s-.048.493-.085.74l-.628,3.583a18.109,18.109,0,0,1-1.2,4.2,15.532,15.532,0,0,1-2.254,3.768,16.2,16.2,0,0,1-7.792,5.25h15.184l-2,12.106H494.392a4.928,4.928,0,0,1-2.854-1.451,13.558,13.558,0,0,1-2.34-3.057,20.107,20.107,0,0,1-2.455-7.475Zm3.767-23.286h7.763a6.212,6.212,0,0,0,2.911-.556,2.622,2.622,0,0,0,1.313-1.854v-.37q0-2.1-3.425-2.1h-7.763Z" transform="translate(-138.788 -6.679)"/><path class="a" d="M540.855,68.5l2-12.106h10.674a5.127,5.127,0,0,0,2.256-.433,3.913,3.913,0,0,0,1.455-1.2,5.939,5.939,0,0,0,.885-1.792,14.523,14.523,0,0,0,.485-2.254l3.653-22.483h13.586l-4.681,28.845a10.644,10.644,0,0,1-1.684,4.015,19.118,19.118,0,0,1-7.021,6.362,8.128,8.128,0,0,1-3.682,1.05Z" transform="translate(-159.279 -6.679)"/><path class="a" d="M586.845,72.912H600.3l4.165-25.547H591.009Z" transform="translate(-172.823 -11.206)"/><path class="a" d="M595.351,28.38l-1.786,10.957h13.45L608.8,28.38Z" transform="translate(-174.802 -6.715)"/></g></svg>