<svg xmlns="http://www.w3.org/2000/svg" xmlns:xlink="http://www.w3.org/1999/xlink" width="23" height="41" viewBox="0 0 23 41"><defs><style>.a{fill:none;stroke:#00d86a;stroke-width:3px;}.b{clip-path:url(#a);}.c{fill:#00d86a;}</style><clipPath id="a"><rect class="a" width="23" height="41" rx="11.5"/></clipPath></defs><g transform="translate(363 -494)"><g class="b" transform="translate(-363 494)"><g transform="translate(0 6.947)"><g transform="translate(0)"><path class="c" d="M51.649,3.547H49.391V1.29A1.294,1.294,0,0,0,48.1,0H31.655a1.294,1.294,0,0,0-1.29,1.29V21.929a1.294,1.294,0,0,0,1.29,1.29h2.257v2.257a1.294,1.294,0,0,0,1.29,1.29H46.166a3.764,3.764,0,0,0,2.229-.884L52,22.49a3.425,3.425,0,0,0,.939-2.174V4.837A1.294,1.294,0,0,0,51.649,3.547ZM33.912,4.837V22.251H31.655a.327.327,0,0,1-.322-.322V1.29a.327.327,0,0,1,.322-.322H48.1a.327.327,0,0,1,.322.322V3.547H35.2A1.294,1.294,0,0,0,33.912,4.837ZM51.335,21.786l-3.6,3.392a1.712,1.712,0,0,1-.276.2V22.413a.809.809,0,0,1,.806-.806h3.226A1.355,1.355,0,0,1,51.335,21.786Zm.635-1.47a1.5,1.5,0,0,1-.044.322H48.262a1.777,1.777,0,0,0-1.774,1.774V25.76a1.687,1.687,0,0,1-.322.039H35.2a.327.327,0,0,1-.322-.322V4.837a.327.327,0,0,1,.322-.322H51.648a.327.327,0,0,1,.322.322Z" transform="translate(-30.365)"/></g><g transform="translate(7.901 8.062)"><path class="c" d="M154.654,116.785H145.3a.484.484,0,0,0,0,.967h9.352a.484.484,0,0,0,0-.967Z" transform="translate(-144.819 -116.785)"/></g><g transform="translate(7.901 14.512)"><path class="c" d="M154.654,210.214H145.3a.484.484,0,1,0,0,.967h9.352a.484.484,0,1,0,0-.967Z" transform="translate(-144.819 -210.214)"/></g><g transform="translate(7.901 17.737)"><path class="c" d="M150.463,256.928H145.3a.484.484,0,1,0,0,.967h5.16a.484.484,0,0,0,0-.967Z" transform="translate(-144.819 -256.928)"/></g><g transform="translate(7.901 11.287)"><path class="c" d="M154.654,163.5H145.3a.484.484,0,1,0,0,.967h9.352a.484.484,0,1,0,0-.967Z" transform="translate(-144.819 -163.499)"/></g></g></g></g></svg>