<svg xmlns="http://www.w3.org/2000/svg" width="11.809" height="14.5" viewBox="0 0 11.809 14.5"><defs><style>.a{fill:#00dd80;}.b{fill:#00aa63;}.c{fill:#fff;}.d{fill:#e1ebf0;}.e{fill:#b4d2d7;}.f{fill:#6fa5aa;}</style></defs><g transform="translate(-863 -527.5)"><g transform="translate(862.5 527.5)"><path class="a" d="M11.685,9.683a7.361,7.361,0,0,1-1.676,2.729,8.7,8.7,0,0,1-3.275,2.029.994.994,0,0,1-.135.039.978.978,0,0,1-.183.02H6.4a.973.973,0,0,1-.2-.02,1.021,1.021,0,0,1-.134-.038A8.7,8.7,0,0,1,2.8,12.414,7.347,7.347,0,0,1,1.121,9.685,16.4,16.4,0,0,1,.514,3.949V3.923c.006-.14.01-.288.012-.451A1.508,1.508,0,0,1,1.911,1.967,5.584,5.584,0,0,0,5.793.256L5.8.247a.86.86,0,0,1,1.206,0l.009.009A5.585,5.585,0,0,0,10.9,1.967a1.508,1.508,0,0,1,1.384,1.506c0,.164.006.311.012.451v.011A16.426,16.426,0,0,1,11.685,9.683Zm0,0" transform="translate(0 0)"/><path class="b" d="M224.218,9.687a7.361,7.361,0,0,1-1.676,2.729,8.7,8.7,0,0,1-3.275,2.029.994.994,0,0,1-.135.039.977.977,0,0,1-.183.02V0a.869.869,0,0,1,.591.247l.009.009a5.585,5.585,0,0,0,3.882,1.711,1.508,1.508,0,0,1,1.384,1.506c0,.164.006.311.013.451v.011A16.425,16.425,0,0,1,224.218,9.687Zm0,0" transform="translate(-212.532 -0.004)"/><path class="c" d="M97.807,132.012a3.543,3.543,0,0,1-3.444,3.614h-.012a3.617,3.617,0,0,1,0-7.228h.012A3.543,3.543,0,0,1,97.807,132.012Zm0,0" transform="translate(-87.946 -124.761)"/><path class="d" d="M222.393,132.012a3.543,3.543,0,0,1-3.444,3.614V128.4A3.543,3.543,0,0,1,222.393,132.012Zm0,0" transform="translate(-212.532 -124.761)"/><path class="e" d="M157.489,212.706l-1.557,1.628-.336.352a.395.395,0,0,1-.576,0l-.723-.756a.439.439,0,0,1,0-.6.394.394,0,0,1,.575,0l.436.456,1.605-1.679a.394.394,0,0,1,.575,0A.439.439,0,0,1,157.489,212.706Zm0,0" transform="translate(-149.515 -205.976)"/><path class="f" d="M220.506,212.706l-1.557,1.628v-1.2l.981-1.026a.394.394,0,0,1,.575,0A.439.439,0,0,1,220.506,212.706Zm0,0" transform="translate(-212.532 -205.976)"/></g></g></svg>