<svg xmlns="http://www.w3.org/2000/svg" width="17.643" height="19" viewBox="0 0 17.643 19">
  <g id="Group_296" data-name="Group 296" transform="translate(-586 -148)">
    <g id="management" transform="translate(580 144)">
      <circle id="Ellipse_2" data-name="Ellipse 2" cx="1.5" cy="1.5" r="1.5" transform="translate(11 14)"/>
      <path id="Path_616" data-name="Path 616" d="M46,5.293V8.586h3.547Z" transform="translate(-26.429 -0.854)"/>
      <path id="Path_617" data-name="Path 617" d="M10.009,28.988a4.406,4.406,0,0,0,.838.345.339.339,0,0,1,.243.325v1.556h2.036V29.658a.339.339,0,0,1,.243-.325,4.406,4.406,0,0,0,.838-.345.339.339,0,0,1,.4.058l1.1,1.1,1.44-1.44-1.1-1.1a.339.339,0,0,1-.059-.4,4.384,4.384,0,0,0,.345-.838.339.339,0,0,1,.325-.243h1.556V24.089H16.658a.339.339,0,0,1-.325-.243,4.384,4.384,0,0,0-.345-.838.339.339,0,0,1,.059-.4l1.1-1.1-1.44-1.44-1.1,1.1a.339.339,0,0,1-.4.059,4.384,4.384,0,0,0-.838-.345.339.339,0,0,1-.243-.325V19H11.089v1.556a.339.339,0,0,1-.243.325,4.384,4.384,0,0,0-.838.345.339.339,0,0,1-.4-.059l-1.1-1.1-1.44,1.44,1.1,1.1a.339.339,0,0,1,.058.4,4.405,4.405,0,0,0-.345.838.339.339,0,0,1-.325.243H6v2.036H7.556a.339.339,0,0,1,.325.243,4.406,4.406,0,0,0,.345.838.339.339,0,0,1-.058.4l-1.1,1.1,1.44,1.44,1.1-1.1A.339.339,0,0,1,10.009,28.988Zm2.1-6.256a2.375,2.375,0,1,1-2.375,2.375A2.375,2.375,0,0,1,12.107,22.732Z" transform="translate(0 -9.911)"/>
      <path id="Path_618" data-name="Path 618" d="M25.5,8.071V4H16v6.083l.52.52a5.094,5.094,0,0,1,.5-.2V8.75a.339.339,0,0,1,.339-.339h2.714a.339.339,0,0,1,.339.339V10.4a5.093,5.093,0,0,1,.5.2l1.165-1.164a.349.349,0,0,1,.48,0l1.92,1.92a.339.339,0,0,1,0,.48L23.308,13a5.093,5.093,0,0,1,.2.5h1.65a.339.339,0,0,1,.339.339v2.714a.339.339,0,0,1-.339.339H23.511a5.1,5.1,0,0,1-.2.5l1.164,1.165a.339.339,0,0,1,0,.48l-1.92,1.92a.339.339,0,0,1-.48,0L20.908,19.79a5.092,5.092,0,0,1-.5.2v1.65a.339.339,0,0,1-.339.339H17.357a.339.339,0,0,1-.339-.339V19.994a5.094,5.094,0,0,1-.5-.2l-.52.52V23H30.25V8.411H25.839A.339.339,0,0,1,25.5,8.071ZM17.357,5.018h2.036V5.7H17.357Zm7.125,2.375H17.357V6.714h7.125Zm0-1.7H20.411V5.018h4.071Z" transform="translate(-6.607)"/>
    </g>
  </g>
</svg>
