<svg xmlns="http://www.w3.org/2000/svg" width="49.5" height="44.373" viewBox="0 0 49.5 44.373"><g transform="translate(-593 -456)"><g transform="translate(593.001 455.5)"><path d="M109.283,23.552a1.45,1.45,0,0,0-2.047.127l-.023.026V22.689A22.2,22.2,0,0,0,74.735,3.025,22.374,22.374,0,0,0,67,9.748a1.45,1.45,0,0,0,2.355,1.693,19.29,19.29,0,0,1,34.96,11.249v1.016l-.024-.026a1.45,1.45,0,0,0-2.174,1.92l2.561,2.9a1.451,1.451,0,0,0,2.174,0l2.561-2.9a1.45,1.45,0,0,0-.127-2.047Zm0,0" transform="translate(-60.275)"/><path d="M42.444,182.022a1.45,1.45,0,0,0-2.024.33A19.29,19.29,0,0,1,5.46,171.1v-1.016l.024.027a1.45,1.45,0,0,0,2.174-1.92l-2.56-2.9a1.45,1.45,0,0,0-2.174,0l-2.561,2.9a1.45,1.45,0,1,0,2.174,1.92l.023-.027V171.1a22.2,22.2,0,0,0,32.478,19.665,22.381,22.381,0,0,0,7.737-6.723,1.45,1.45,0,0,0-.33-2.024Zm0,0" transform="translate(0 -148.419)"/><path d="M201.8,181.558a5.8,5.8,0,1,0-5.8-5.8A5.807,5.807,0,0,0,201.8,181.558Zm0-8.7a2.9,2.9,0,1,1-2.9,2.9A2.9,2.9,0,0,1,201.8,172.857Zm0,0" transform="translate(-177.052 -153.074)"/><path d="M107.584,96.467a1.448,1.448,0,0,0,.145,1.1l2.9,5.024a1.45,1.45,0,0,0,1.981.531l2.133-1.231a11.684,11.684,0,0,0,2.795,1.617v2.459a1.45,1.45,0,0,0,1.45,1.45h5.8a1.451,1.451,0,0,0,1.45-1.45v-2.459a11.684,11.684,0,0,0,2.795-1.617l2.133,1.231a1.45,1.45,0,0,0,1.981-.531l2.9-5.024a1.45,1.45,0,0,0-.531-1.981l-2.137-1.234a11.671,11.671,0,0,0,0-3.22l2.14-1.235a1.45,1.45,0,0,0,.531-1.981l-2.9-5.024a1.45,1.45,0,0,0-1.981-.531L129.02,83.6A11.691,11.691,0,0,0,126.239,82V79.517a1.45,1.45,0,0,0-1.45-1.45h-5.8a1.45,1.45,0,0,0-1.45,1.45V82a11.688,11.688,0,0,0-2.78,1.606l-2.147-1.239a1.45,1.45,0,0,0-1.981.531l-2.9,5.024a1.45,1.45,0,0,0,.531,1.981l2.14,1.235a11.672,11.672,0,0,0,0,3.22l-2.137,1.234a1.45,1.45,0,0,0-.676.881Zm5.837-1.7a8.767,8.767,0,0,1,0-4.036,1.45,1.45,0,0,0-.685-1.592l-1.773-1.023,1.45-2.512,1.779,1.027a1.451,1.451,0,0,0,1.721-.2,8.726,8.726,0,0,1,3.485-2.013,1.451,1.451,0,0,0,1.037-1.39V80.967h2.9v2.054a1.45,1.45,0,0,0,1.036,1.39,8.73,8.73,0,0,1,3.486,2.013,1.451,1.451,0,0,0,1.721.2L131.36,85.6l1.45,2.512-1.773,1.023a1.451,1.451,0,0,0-.686,1.592,8.761,8.761,0,0,1,0,4.036,1.45,1.45,0,0,0,.686,1.59l1.769,1.021-1.45,2.512-1.766-1.02a1.451,1.451,0,0,0-1.723.2,8.734,8.734,0,0,1-3.5,2.023,1.45,1.45,0,0,0-1.037,1.39v2.035h-2.9v-2.035a1.45,1.45,0,0,0-1.036-1.39,8.728,8.728,0,0,1-3.5-2.023,1.451,1.451,0,0,0-1.722-.2l-1.766,1.02-1.45-2.512,1.769-1.021a1.45,1.45,0,0,0,.686-1.59Zm0,0" transform="translate(-97.14 -70.067)"/></g></g></svg>