<svg xmlns="http://www.w3.org/2000/svg" width="44.491" height="47" viewBox="0 0 44.491 47"><g transform="translate(-966 -453)"><g transform="translate(953.041 453)"><g transform="translate(12.959 -0.001)"><path d="M142.728,129.248a3.108,3.108,0,0,0,2.281-2.147l1.155-3.4.464.158a.41.41,0,0,0,.518-.255l.62-1.822a.409.409,0,0,0-.255-.518l-14.971-5.091a.41.41,0,0,0-.518.255l-.62,1.822a.41.41,0,0,0,.255.518l.465.158-1.176,3.458a2.5,2.5,0,0,0,.509,3.018l3.03,3.628-.338.993c-1.159.252-4.189.912-4.6,1.029a3.109,3.109,0,0,0-2.282,2.147l-.994,2.924-.465-.158a.41.41,0,0,0-.518.255l-.619,1.822a.41.41,0,0,0,.255.518l14.971,5.091a.41.41,0,0,0,.518-.255l.619-1.822a.409.409,0,0,0-.255-.518l-.464-.158,1.015-2.986a2.5,2.5,0,0,0-.509-3.018l-3.029-3.628.337-.993C139.291,130.026,142.32,129.366,142.728,129.248ZM136.4,131.9l3.294,3.945a1.9,1.9,0,0,1,.423.619,2.107,2.107,0,0,1-.178.983l-1.015,2.986L127.666,136.6l.994-2.924a1.665,1.665,0,0,1,1.3-1.208c.325-.094,3.112-.7,4.905-1.093a.735.735,0,0,0,.54-.482l.6-1.778a.735.735,0,0,0-.132-.708l-3.284-3.933-.01-.012a1.9,1.9,0,0,1-.423-.619,2.107,2.107,0,0,1,.178-.983l1.176-3.458,11.259,3.828-1.155,3.4a1.664,1.664,0,0,1-1.3,1.208c-.325.094-3.111.705-4.905,1.093a.736.736,0,0,0-.541.482l-.6,1.777A.735.735,0,0,0,136.4,131.9Z" transform="translate(-113.84 -104.912)"/><path d="M44.415,41c-.329.186-.667.365-1.007.53q-.082.04-.159.088a1.731,1.731,0,0,0-.162.066,18.447,18.447,0,0,1-4.588,1.45c-.02,0-.04,0-.061.008-.373.066-.752.121-1.127.164l-.012,0a19.052,19.052,0,0,1-2.09.115A18.7,18.7,0,0,1,17.6,30.963c-.039-.111-.078-.221-.114-.332a18.679,18.679,0,0,1,0-11.767l.04-.121q.055-.162.114-.322l.055-.15A18.745,18.745,0,0,1,30.726,6.631l.011,0,.268-.064.029-.008a18.662,18.662,0,0,1,4.078-.47l.016,1.919c0,.6.381.768.836.383l4.054-3.437a.872.872,0,0,0-.012-1.387L35.9.2c-.461-.377-.834-.2-.829.4l.016,1.916a22.1,22.1,0,0,0-15.6,6.514Q18.863,9.64,18.3,10.3l-.007.007-.041.049A22.062,22.062,0,0,0,12.974,24.1c0,.04-.008.079-.009.119,0,.17-.006.343-.006.514,0,.28.006.564.016.844,0,.033.005.065.009.1a22.049,22.049,0,0,0,4.609,12.666c.01.012.017.026.027.038.275.355.566.707.863,1.045.019.022.04.041.06.061q.452.509.936,1a22.082,22.082,0,0,0,11.976,6.2l.041.008.03,0a22.535,22.535,0,0,0,3.682.3,22.061,22.061,0,0,0,9.39-2.073,1.771,1.771,0,0,0,.182-.1,1.722,1.722,0,0,0,.2-.081c.4-.2.809-.41,1.2-.632A1.789,1.789,0,1,0,44.415,41Z" transform="translate(-12.959 0.001)"/><path d="M393.351,112.714a1.789,1.789,0,1,0,2.969-2c-.252-.374-.517-.745-.791-1.1a1.789,1.789,0,1,0-2.841,2.174C392.917,112.09,393.14,112.4,393.351,112.714Z" transform="translate(-355.599 -98.372)"/><path d="M425.646,174.919c.115.359.221.728.314,1.095a1.789,1.789,0,0,0,3.467-.884c-.111-.437-.237-.875-.374-1.3a1.789,1.789,0,1,0-3.407,1.091Z" transform="translate(-385.623 -155.879)"/><path d="M379.189,376.075a1.789,1.789,0,0,0-2.523.183c-.247.286-.506.568-.77.838a1.789,1.789,0,1,0,2.559,2.5c.314-.322.623-.658.918-1A1.789,1.789,0,0,0,379.189,376.075Z" transform="translate(-340.305 -339.279)"/><path d="M436.777,243.728a1.788,1.788,0,0,0-1.841,1.735c-.011.378-.034.761-.069,1.137a1.789,1.789,0,0,0,1.618,1.945c.056.005.111.008.166.008a1.789,1.789,0,0,0,1.779-1.625c.041-.449.069-.905.082-1.357A1.789,1.789,0,0,0,436.777,243.728Z" transform="translate(-394.021 -220.136)"/><path d="M419.1,314.247a1.789,1.789,0,0,0-2.318,1.014c-.138.352-.288.7-.448,1.048a1.789,1.789,0,1,0,3.246,1.5c.189-.409.369-.828.533-1.248A1.789,1.789,0,0,0,419.1,314.247Z" transform="translate(-377.139 -283.718)"/><path d="M343.849,63.671a1.789,1.789,0,0,0-.373-2.5c-.362-.268-.736-.528-1.114-.774a1.789,1.789,0,0,0-1.951,3c.317.206.632.425.936.65a1.788,1.788,0,0,0,2.5-.373Z" transform="translate(-307.981 -54.288)"/></g></g></g></svg>