<svg xmlns="http://www.w3.org/2000/svg" width="14.473" height="19" viewBox="0 0 14.473 19">
  <g id="Group_297" data-name="Group 297" transform="translate(-61)">
    <path id="Path_614" data-name="Path 614" d="M70.982,5.566a1.3,1.3,0,0,1-1.3-1.3V0H63.041A2.043,2.043,0,0,0,61,2.041V16.959A2.043,2.043,0,0,0,63.041,19H73.432a2.043,2.043,0,0,0,2.041-2.041V5.566Zm-6.939,7.793h2.7a.557.557,0,0,1,0,1.113h-2.7a.557.557,0,0,1,0-1.113Zm-.557-2.412a.557.557,0,0,1,.557-.557h8.164a.557.557,0,0,1,0,1.113H64.043A.557.557,0,0,1,63.486,10.947Zm8.721-3.525a.557.557,0,0,1,0,1.113H64.043a.557.557,0,0,1,0-1.113Z"/>
  </g>
</svg>
